<svg xmlns="http://www.w3.org/2000/svg" width="13.227" height="10.808"><path fill-rule="evenodd" clip-rule="evenodd" fill="#243a73" d="M11.742 1.679c.511-.044.988-.191 1.484-.395a4.61 4.61 0 0 1-.72.866 9.945 9.945 0 0 1-.547.471c-.059.051-.084.101-.08.178a7.423 7.423 0 0 1-.281 2.306 8.123 8.123 0 0 1-1.102 2.387A7.806 7.806 0 0 1 9.053 9.09a7.298 7.298 0 0 1-2.136 1.235 7.956 7.956 0 0 1-2.79.484 7.693 7.693 0 0 1-2.592-.444 7.802 7.802 0 0 1-1.439-.683A.475.475 0 0 1 0 9.607c1.454.116 2.77-.246 3.959-1.142-1.246-.114-2.08-.729-2.516-1.885.389.047.77.037 1.146-.067-.613-.17-1.129-.479-1.525-.979a2.654 2.654 0 0 1-.592-1.709c.202.072.387.156.578.21.196.055.397.078.599.103C.455 3.128.194 1.928.844.489 2.336 2.24 4.198 3.194 6.477 3.354c-.02-.184-.042-.347-.051-.514C6.35 1.603 7.215.415 8.41.101c.84-.219 1.617-.084 2.33.41.113.078.214.173.313.268.059.059.109.076.193.059a5.479 5.479 0 0 0 1.445-.545c.037-.02.075-.039.113-.057.01-.004.021-.004.053-.009-.207.622-.593 1.086-1.115 1.452z"/></svg>